<svg width="140" height="26" viewBox="0 0 140 26" fill="none" xmlns="http://www.w3.org/2000/svg">
<path d="M12.6464 17.0078C13.188 16.9922 13.688 16.9557 14.1464 16.8984C14.2089 16.8984 14.3052 16.888 14.4354 16.8672V11.8438C13.9771 11.849 13.5708 11.8568 13.2167 11.8672C12.9771 11.8724 12.8547 11.875 12.8495 11.875C12.7662 11.875 12.7167 11.8646 12.701 11.8438C12.6854 11.8229 12.6776 11.7734 12.6776 11.6953V10.6875C12.6776 10.6042 12.688 10.5547 12.7089 10.5391C12.7297 10.5234 12.7766 10.5156 12.8495 10.5156L14.8026 10.5469H25.076L27.0292 10.5156C27.1385 10.5156 27.1932 10.5729 27.1932 10.6875V11.6953C27.1932 11.8151 27.1385 11.875 27.0292 11.875L25.076 11.8438H19.6542V17.2031L19.6854 19.125C19.6854 19.2083 19.675 19.2578 19.6542 19.2734C19.6333 19.2891 19.5865 19.2969 19.5135 19.2969H18.326C18.2427 19.2969 18.1906 19.2865 18.1698 19.2656C18.1542 19.2448 18.1464 19.1979 18.1464 19.125C18.1464 19.1146 18.1516 18.9427 18.162 18.6094C18.1672 18.2656 18.1724 17.9089 18.1776 17.5391C16.7818 17.8359 15.3964 18.0859 14.0214 18.2891C13.7609 18.3255 13.5682 18.3802 13.4432 18.4531C13.313 18.5156 13.2271 18.5469 13.1854 18.5469C13.0865 18.5469 13.0135 18.4609 12.9667 18.2891C12.8677 17.9974 12.7609 17.5703 12.6464 17.0078ZM18.1776 16.3203V15.5703H15.9276V16.6719C17.063 16.5052 17.813 16.388 18.1776 16.3203ZM15.9276 12.6875H18.1776V11.8438H15.9276V12.6875ZM15.9276 14.5469H18.1776V13.7109H15.9276V14.5469ZM22.8417 5.21875L25.076 5.1875C25.1646 5.1875 25.2167 5.20052 25.2323 5.22656C25.2479 5.2474 25.2557 5.29948 25.2557 5.38281L25.2245 6.6875V8.36719L25.2557 9.67188C25.2557 9.76562 25.2453 9.82292 25.2245 9.84375C25.2037 9.85938 25.1542 9.86719 25.076 9.86719L22.8417 9.83594H17.0135L14.7792 9.86719C14.6906 9.86719 14.6385 9.85417 14.6229 9.82812C14.6073 9.80729 14.5995 9.75521 14.5995 9.67188L14.6307 8.36719V6.6875L14.5995 5.38281C14.5995 5.28906 14.6099 5.23177 14.6307 5.21094C14.6516 5.19531 14.701 5.1875 14.7792 5.1875L17.0135 5.21875H22.8417ZM23.6385 8.71875V8.03125H16.2167V8.71875H23.6385ZM16.2167 6.40625V7.07031H23.6385V6.40625H16.2167ZM19.6698 17.7891C20.675 17.4922 21.5344 17.0938 22.2479 16.5938C21.6073 15.875 21.0839 15.0208 20.6776 14.0312C20.5057 14.0417 20.3677 14.0469 20.2635 14.0469C20.1802 14.0469 20.1281 14.0339 20.1073 14.0078C20.0917 13.987 20.0839 13.9349 20.0839 13.8516V12.9297C20.0839 12.8411 20.0969 12.7891 20.1229 12.7734C20.1385 12.7578 20.1854 12.75 20.2635 12.75L22.0214 12.7812H24.7245C24.813 12.7812 24.9094 12.7604 25.0135 12.7188C25.1229 12.6771 25.2037 12.6562 25.2557 12.6562C25.3599 12.6562 25.5474 12.7786 25.8182 13.0234C26.1047 13.2995 26.2479 13.4974 26.2479 13.6172C26.2479 13.7318 26.1932 13.8281 26.0839 13.9062C25.9797 13.9688 25.8365 14.1927 25.6542 14.5781C25.274 15.3385 24.8417 15.9844 24.3573 16.5156C25.1177 16.9948 26.063 17.3568 27.1932 17.6016C26.9432 17.9661 26.7557 18.3073 26.6307 18.625C26.537 18.875 26.4406 19 26.3417 19C26.2896 19 26.1828 18.9766 26.0214 18.9297C24.9901 18.6016 24.0787 18.1432 23.287 17.5547C22.5422 18.1276 21.7375 18.5964 20.8729 18.9609C20.6854 19.0339 20.5787 19.0703 20.5526 19.0703C20.4641 19.0703 20.3677 18.9479 20.2635 18.7031C20.0813 18.3073 19.8833 18.0026 19.6698 17.7891ZM23.3026 15.6797C23.7453 15.2057 24.1125 14.651 24.4042 14.0156H22.1307C22.4484 14.6771 22.8391 15.2318 23.3026 15.6797ZM34.8182 18.3438C35.6307 17.3802 36.1802 16.2995 36.4667 15.1016C36.6802 14.2161 36.787 12.6797 36.787 10.4922V8.75C36.787 7.68229 36.7557 6.77083 36.6932 6.01562C37.2245 6.10417 37.7141 6.23177 38.162 6.39844C39.1516 6.14844 40.076 5.77865 40.9354 5.28906C41.2375 5.1276 41.5188 4.93229 41.7792 4.70312C42.1333 4.99479 42.4823 5.3724 42.826 5.83594C42.899 5.9401 42.9354 6.04167 42.9354 6.14062C42.9354 6.25 42.8547 6.3151 42.6932 6.33594C42.5162 6.35156 42.3078 6.41406 42.0682 6.52344C40.8703 7.10677 39.6281 7.54427 38.3417 7.83594V9.78906H41.076L43.2557 9.75781C43.3391 9.75781 43.3885 9.76823 43.4042 9.78906C43.4198 9.8099 43.4276 9.85677 43.4276 9.92969V11.1016C43.4276 11.1849 43.4172 11.2344 43.3964 11.25C43.3755 11.2656 43.3287 11.2734 43.2557 11.2734C43.2401 11.2734 43.1698 11.2708 43.0448 11.2656C42.6281 11.2552 42.1594 11.2474 41.6385 11.2422V16.875L41.6698 19.0859C41.6698 19.1745 41.6594 19.2292 41.6385 19.25C41.6229 19.2656 41.5813 19.2734 41.5135 19.2734H40.1932C40.1099 19.2734 40.0604 19.263 40.0448 19.2422C40.0292 19.2214 40.0214 19.1693 40.0214 19.0859L40.0526 16.875V11.2422H38.3417C38.326 13.2734 38.188 14.8151 37.9276 15.8672C37.6464 16.9714 37.1854 17.9844 36.5448 18.9062C36.3938 19.1094 36.2818 19.2109 36.2089 19.2109C36.1568 19.2109 36.0396 19.1354 35.8573 18.9844C35.5188 18.6927 35.1724 18.4792 34.8182 18.3438ZM30.8573 11.3281L28.8885 11.3594C28.7844 11.3594 28.7323 11.3021 28.7323 11.1875V10.0312C28.7323 9.91667 28.7844 9.85938 28.8885 9.85938L30.8573 9.89062H32.9198C33.1281 9.48438 33.3313 8.97656 33.5292 8.36719C33.5865 8.19531 33.6229 7.96094 33.6385 7.66406C33.8573 7.70573 34.1125 7.76302 34.4042 7.83594C34.774 7.9349 34.9823 7.98958 35.0292 8C35.1594 8.04167 35.2245 8.11719 35.2245 8.22656C35.2245 8.3151 35.1828 8.39583 35.0995 8.46875C35.0109 8.54167 34.9302 8.66406 34.8573 8.83594C34.6594 9.28385 34.4927 9.63542 34.3573 9.89062L36.0917 9.85938C36.175 9.85938 36.2245 9.86979 36.2401 9.89062C36.2557 9.91146 36.2635 9.95833 36.2635 10.0312V11.1875C36.2635 11.2708 36.2531 11.3203 36.2323 11.3359C36.2115 11.3516 36.1646 11.3594 36.0917 11.3594L34.1229 11.3281H33.3885C33.3625 11.4062 33.3495 11.7005 33.3495 12.2109V12.5H33.8964L35.8182 12.4688C35.9016 12.4688 35.951 12.4792 35.9667 12.5C35.9823 12.5208 35.9901 12.5677 35.9901 12.6406V13.7734C35.9901 13.862 35.9797 13.9141 35.9589 13.9297C35.938 13.9453 35.8912 13.9531 35.8182 13.9531L33.8964 13.9219H33.787C34.3912 14.6198 35.0734 15.1797 35.8339 15.6016C35.6359 15.8724 35.4484 16.2135 35.2714 16.625C35.2037 16.7969 35.1412 16.8828 35.0839 16.8828C35.0057 16.8828 34.8938 16.8073 34.7479 16.6562C34.2219 16.1979 33.7453 15.6432 33.3182 14.9922C33.3287 15.8828 33.3469 16.8099 33.3729 17.7734C33.3938 18.5026 33.4042 18.9245 33.4042 19.0391C33.4042 19.1224 33.3912 19.1745 33.3651 19.1953C33.3443 19.2109 33.2922 19.2188 33.2089 19.2188H31.9432C31.8599 19.2188 31.8104 19.2057 31.7948 19.1797C31.7792 19.1641 31.7714 19.1172 31.7714 19.0391C31.7714 18.9505 31.7818 18.4766 31.8026 17.6172C31.8182 16.8411 31.8287 16.0833 31.8339 15.3438C31.3391 16.1771 30.6464 17.0391 29.7557 17.9297C29.5891 18.0807 29.4771 18.1562 29.4198 18.1562C29.3313 18.1562 29.2453 18.0495 29.162 17.8359C28.9797 17.4089 28.7714 17.0521 28.537 16.7656C29.6776 16.0104 30.6203 15.0625 31.3651 13.9219H30.9667L29.0292 13.9531C28.9458 13.9531 28.8964 13.9427 28.8807 13.9219C28.8651 13.901 28.8573 13.8516 28.8573 13.7734V12.6406C28.8573 12.5573 28.8677 12.5078 28.8885 12.4922C28.9094 12.4766 28.9563 12.4688 29.0292 12.4688L30.9667 12.5H31.8026V12.2109C31.8026 11.7839 31.7974 11.4896 31.787 11.3281H30.8573ZM33.9432 7.48438H31.1307L29.2401 7.51562C29.1568 7.51562 29.1073 7.50521 29.0917 7.48438C29.076 7.46354 29.0682 7.41667 29.0682 7.34375V6.23438C29.0682 6.15104 29.0787 6.10156 29.0995 6.08594C29.1203 6.07031 29.1672 6.0625 29.2401 6.0625L31.1307 6.09375H31.7557V5.66406C31.7557 5.22656 31.7219 4.8724 31.6542 4.60156C32.3625 4.6224 32.9172 4.65104 33.3182 4.6875C33.4901 4.70312 33.576 4.75 33.576 4.82812C33.576 4.88021 33.5448 4.97135 33.4823 5.10156C33.4302 5.19531 33.4042 5.38802 33.4042 5.67969V6.09375H33.9432L35.8182 6.0625C35.912 6.0625 35.9667 6.07292 35.9823 6.09375C35.9979 6.11458 36.0057 6.16146 36.0057 6.23438V7.34375C36.0057 7.42708 35.9953 7.47656 35.9745 7.49219C35.9537 7.50781 35.9016 7.51562 35.8182 7.51562L33.9432 7.48438ZM30.1229 8.22656C30.0865 8.15885 30.0682 8.10938 30.0682 8.07812C30.0682 8.02083 30.1333 7.97917 30.2635 7.95312L31.0839 7.71094C31.1412 7.69531 31.1854 7.6875 31.2167 7.6875C31.274 7.6875 31.3234 7.73177 31.3651 7.82031C31.5943 8.21615 31.7922 8.69792 31.9589 9.26562C31.9745 9.3125 31.9823 9.34896 31.9823 9.375C31.9823 9.4375 31.9224 9.48698 31.8026 9.52344L30.8885 9.75781C30.8156 9.78385 30.7609 9.79688 30.7245 9.79688C30.6516 9.79688 30.5995 9.74219 30.5682 9.63281C30.3964 8.95052 30.2479 8.48177 30.1229 8.22656ZM54.7479 17.6797C55.1177 17.7109 55.4797 17.7266 55.8339 17.7266C56.0682 17.7266 56.2245 17.6823 56.3026 17.5938C56.3651 17.5208 56.3964 17.4062 56.3964 17.25V16.6094H52.0604V17.3438L52.0917 19.0703C52.0917 19.1641 52.0787 19.2188 52.0526 19.2344C52.0318 19.2552 51.9797 19.2656 51.8964 19.2656H50.6464C50.5578 19.2656 50.5031 19.2526 50.4823 19.2266C50.4667 19.2057 50.4589 19.1536 50.4589 19.0703L50.4901 17.375V13.6328L50.4589 11.9062C50.4589 11.8125 50.4719 11.7552 50.4979 11.7344C50.5188 11.7188 50.5708 11.7109 50.6542 11.7109L52.6307 11.7422H55.8182L57.8026 11.7109C57.8859 11.7109 57.9354 11.724 57.951 11.75C57.9667 11.7708 57.9745 11.8229 57.9745 11.9062L57.9432 13.7734V15.2031L57.9745 17.4219C57.9745 18.0677 57.8365 18.5156 57.5604 18.7656C57.2844 19.0104 56.6776 19.1458 55.7401 19.1719C55.6359 19.1719 55.5708 19.1719 55.5448 19.1719C55.3885 19.1719 55.287 19.138 55.2401 19.0703C55.2037 19.0182 55.162 18.8854 55.1151 18.6719C55.0318 18.2917 54.9094 17.9609 54.7479 17.6797ZM52.0604 15.5547H56.3964V14.7656H52.0604V15.5547ZM56.3964 12.9609H52.0604V13.7109H56.3964V12.9609ZM52.037 11.0781L49.8651 11.0938C49.7766 11.0938 49.7245 11.0859 49.7089 11.0703C49.6932 11.0495 49.6854 10.9974 49.6854 10.9141V10C49.6854 9.91667 49.6984 9.86719 49.7245 9.85156C49.7401 9.83594 49.787 9.82812 49.8651 9.82812L52.037 9.85938H53.3807V9.125H52.5839L50.5682 9.15625C50.4849 9.15625 50.4328 9.14323 50.412 9.11719C50.3964 9.09635 50.3885 9.04427 50.3885 8.96094V8.16406C50.3885 8.07552 50.4016 8.02344 50.4276 8.00781C50.4432 7.99219 50.4901 7.98438 50.5682 7.98438L52.5839 8.01562H53.3807V7.29688H52.326L50.2167 7.32812C50.1333 7.32812 50.0813 7.31771 50.0604 7.29688C50.0448 7.27604 50.037 7.22656 50.037 7.14844V6.28906C50.037 6.19531 50.05 6.13802 50.076 6.11719C50.0917 6.10156 50.1385 6.09375 50.2167 6.09375L52.326 6.125H53.3807C53.3703 5.60417 53.3339 5.08073 53.2714 4.55469C53.8182 4.57031 54.3469 4.60938 54.8573 4.67188C55.0292 4.6875 55.1151 4.73958 55.1151 4.82812C55.1151 4.89583 55.0995 4.97396 55.0682 5.0625C55.0266 5.16667 55.0031 5.22656 54.9979 5.24219C54.9563 5.38281 54.9354 5.67708 54.9354 6.125H56.4745L58.5682 6.09375C58.662 6.09375 58.7167 6.10677 58.7323 6.13281C58.7531 6.15365 58.7635 6.20573 58.7635 6.28906V7.14844C58.7635 7.23698 58.7505 7.28906 58.7245 7.30469C58.7037 7.32031 58.6516 7.32812 58.5682 7.32812L56.4745 7.29688H54.9354V8.01562H56.0214L58.0214 7.98438C58.1047 7.98438 58.1568 7.99479 58.1776 8.01562C58.1932 8.03646 58.201 8.08594 58.201 8.16406V8.96094C58.201 9.05469 58.1906 9.11198 58.1698 9.13281C58.149 9.14844 58.0995 9.15625 58.0214 9.15625L56.0214 9.125H54.9354V9.85938H56.9198L59.076 9.82812C59.1646 9.82812 59.2167 9.83854 59.2323 9.85938C59.2479 9.88021 59.2557 9.92708 59.2557 10V10.9141C59.2557 11.0078 59.2453 11.0625 59.2245 11.0781C59.2089 11.0885 59.1594 11.0938 59.076 11.0938L56.9198 11.0781H52.037ZM46.5682 4.59375C47.1828 4.60938 47.7323 4.64583 48.2167 4.70312C48.3885 4.71875 48.4745 4.77344 48.4745 4.86719C48.4745 4.95573 48.4484 5.0625 48.3964 5.1875C48.3182 5.38021 48.2792 5.97135 48.2792 6.96094V16.2578L48.3104 19.0547C48.3104 19.1484 48.3 19.2057 48.2792 19.2266C48.2583 19.2422 48.2115 19.25 48.1385 19.25H46.8417C46.7531 19.25 46.701 19.237 46.6854 19.2109C46.6698 19.1901 46.662 19.138 46.662 19.0547L46.6932 16.2734V7.00781C46.6932 5.98177 46.6516 5.17708 46.5682 4.59375ZM45.3026 7.95312L46.0526 8.10938C46.2089 8.14583 46.287 8.21094 46.287 8.30469C46.287 8.32031 46.287 8.34115 46.287 8.36719C46.2141 9.79948 46.0318 10.9661 45.7401 11.8672C45.7141 11.9505 45.6828 11.9922 45.6464 11.9922C45.6203 11.9922 45.5656 11.974 45.4823 11.9375L44.7089 11.6172C44.5787 11.5651 44.5135 11.4974 44.5135 11.4141C44.5135 11.388 44.5214 11.349 44.537 11.2969C44.813 10.4167 44.9823 9.33594 45.0448 8.05469C45.0448 7.96615 45.0682 7.92188 45.1151 7.92188C45.1359 7.92188 45.1984 7.93229 45.3026 7.95312ZM49.1151 7.42188C49.1776 7.40104 49.2245 7.39062 49.2557 7.39062C49.313 7.39062 49.3599 7.4349 49.3964 7.52344C49.688 8.1849 49.9068 8.81771 50.0526 9.42188C50.0682 9.47396 50.076 9.51042 50.076 9.53125C50.076 9.58854 50.0109 9.64323 49.8807 9.69531L49.2089 9.9375C49.1203 9.96875 49.0604 9.98438 49.0292 9.98438C48.9719 9.98438 48.9354 9.9349 48.9198 9.83594C48.7792 9.1901 48.5813 8.54688 48.326 7.90625C48.3052 7.84375 48.2948 7.79948 48.2948 7.77344C48.2948 7.71615 48.3599 7.66927 48.4901 7.63281L49.1151 7.42188ZM75.5057 17.7578C75.2714 18.0234 75.063 18.3854 74.8807 18.8438C74.7714 19.0781 74.6828 19.1953 74.6151 19.1953C74.5682 19.1953 74.4615 19.138 74.2948 19.0234C73.576 18.4818 72.9354 17.9036 72.3729 17.2891C71.9823 17.8359 71.5292 18.375 71.0135 18.9062C70.8469 19.0573 70.7401 19.1328 70.6932 19.1328C70.6307 19.1328 70.5344 19.0208 70.4042 18.7969C70.2063 18.4271 69.9771 18.112 69.7167 17.8516C69.7219 18.1589 69.7297 18.4635 69.7401 18.7656C69.7453 18.9635 69.7479 19.0703 69.7479 19.0859C69.7479 19.1901 69.6906 19.2422 69.576 19.2422H68.3417C68.2479 19.2422 68.1906 19.2318 68.1698 19.2109C68.1542 19.1953 68.1464 19.1536 68.1464 19.0859L68.1776 15.7422V8.85156L68.1464 5.46094C68.1464 5.3724 68.1594 5.32031 68.1854 5.30469C68.2063 5.28906 68.2583 5.28125 68.3417 5.28125L70.326 5.3125H72.9042L74.7089 5.28125C74.8495 5.28125 74.9198 5.33594 74.9198 5.44531C74.9198 5.45573 74.9198 5.47135 74.9198 5.49219C74.9042 5.61719 74.8938 5.76562 74.8885 5.9375C74.8781 6.15104 74.8729 6.27344 74.8729 6.30469C74.8104 7.54427 74.6932 8.34375 74.5214 8.70312C74.3547 9.03646 74.1307 9.26562 73.8495 9.39062C73.5943 9.5 73.2349 9.55469 72.7714 9.55469C72.3964 9.55469 72.1151 9.54948 71.9276 9.53906C71.7297 9.52344 71.6125 9.49479 71.576 9.45312C71.5396 9.41146 71.5057 9.30208 71.4745 9.125C71.4016 8.6875 71.3156 8.34375 71.2167 8.09375C71.6854 8.16146 72.1021 8.19531 72.4667 8.19531C72.6906 8.19531 72.8495 8.16146 72.9432 8.09375C73.0318 8.03125 73.0969 7.92448 73.1385 7.77344C73.2167 7.52344 73.2557 7.19271 73.2557 6.78125H69.7167V10.3984H73.1542C73.3833 10.3984 73.5344 10.3776 73.6073 10.3359C73.6802 10.2943 73.7609 10.2734 73.8495 10.2734C73.9641 10.2734 74.1672 10.4167 74.4589 10.7031C74.7557 11.0156 74.9042 11.224 74.9042 11.3281C74.9042 11.4167 74.8677 11.5078 74.7948 11.6016C74.675 11.737 74.5839 11.9375 74.5214 12.2031C74.188 13.6615 73.7531 14.8932 73.2167 15.8984C73.8156 16.5547 74.5787 17.1745 75.5057 17.7578ZM69.7167 17.8047C70.4094 17.1953 70.9693 16.5911 71.3964 15.9922C70.6672 14.8516 70.1438 13.4661 69.826 11.8359H69.7167V17.8047ZM73.1073 11.8359H71.1698C71.4406 12.8932 71.8 13.8047 72.2479 14.5703C72.576 13.8672 72.8625 12.9557 73.1073 11.8359ZM63.1073 15.1016H63.6385V13.7891H62.8182L60.951 13.8203C60.8625 13.8203 60.8104 13.8073 60.7948 13.7812C60.7792 13.7604 60.7714 13.7083 60.7714 13.625V12.6328C60.7714 12.5495 60.7818 12.5 60.8026 12.4844C60.8234 12.4688 60.8729 12.4609 60.951 12.4609L62.8182 12.4922H64.7089C64.9068 12.0078 65.076 11.5391 65.2167 11.0859C65.274 10.8984 65.3287 10.6458 65.3807 10.3281C65.8651 10.4167 66.313 10.5234 66.7245 10.6484C66.8755 10.6953 66.951 10.7552 66.951 10.8281C66.951 10.901 66.9146 10.9661 66.8417 11.0234C66.7583 11.0859 66.688 11.1849 66.6307 11.3203C66.4484 11.7734 66.2766 12.1641 66.1151 12.4922L67.6542 12.4609C67.7375 12.4609 67.787 12.4714 67.8026 12.4922C67.8182 12.513 67.826 12.5599 67.826 12.6328V13.625C67.826 13.7188 67.8156 13.776 67.7948 13.7969C67.774 13.8125 67.7271 13.8203 67.6542 13.8203L65.7635 13.7891H65.1698V15.1016H65.5995L67.3495 15.0703C67.4328 15.0703 67.4823 15.0807 67.4979 15.1016C67.5135 15.1224 67.5214 15.1693 67.5214 15.2422V16.2344C67.5214 16.3177 67.5109 16.3698 67.4901 16.3906C67.4745 16.4062 67.4276 16.4141 67.3495 16.4141L65.5995 16.3828H65.1698V17.4219L65.201 19.0859C65.201 19.1693 65.1906 19.2188 65.1698 19.2344C65.149 19.25 65.1021 19.2578 65.0292 19.2578H63.7792C63.6958 19.2578 63.6438 19.2474 63.6229 19.2266C63.6073 19.2057 63.5995 19.1589 63.5995 19.0859L63.6385 17.4219V16.3828H63.1073L61.3495 16.4141C61.2662 16.4141 61.2141 16.4036 61.1932 16.3828C61.1776 16.362 61.1698 16.3125 61.1698 16.2344V15.2422C61.1698 15.1589 61.1802 15.1094 61.201 15.0938C61.2219 15.0781 61.2714 15.0703 61.3495 15.0703L63.1073 15.1016ZM62.8339 8.94531H63.6385V7.67969H63.201L61.4745 7.71094C61.3912 7.71094 61.3417 7.70052 61.326 7.67969C61.3104 7.65885 61.3026 7.61198 61.3026 7.53906V6.53125C61.3026 6.42188 61.3599 6.36719 61.4745 6.36719L63.201 6.39844H63.6385V6.36719C63.6385 5.64323 63.5995 5.05729 63.5214 4.60938C64.162 4.625 64.6906 4.66146 65.1073 4.71875C65.2792 4.73438 65.3651 4.78906 65.3651 4.88281C65.3651 4.94531 65.3339 5.04167 65.2714 5.17188C65.2037 5.28646 65.1698 5.55208 65.1698 5.96875V6.39844H65.5214L67.2479 6.36719C67.3573 6.36719 67.412 6.42188 67.412 6.53125V7.53906C67.412 7.65365 67.3573 7.71094 67.2479 7.71094L65.5214 7.67969H65.1698V8.94531H65.7167L67.6229 8.91406C67.7063 8.91406 67.7557 8.92708 67.7714 8.95312C67.787 8.97396 67.7948 9.02604 67.7948 9.10938V10.1016C67.7948 10.1849 67.7844 10.2344 67.7635 10.25C67.7427 10.2656 67.6958 10.2734 67.6229 10.2734L65.7167 10.2422H62.8339L60.9667 10.2734C60.8729 10.2734 60.8156 10.263 60.7948 10.2422C60.7792 10.2214 60.7714 10.1745 60.7714 10.1016V9.10938C60.7714 9.01562 60.7844 8.95833 60.8104 8.9375C60.8313 8.92188 60.8833 8.91406 60.9667 8.91406L62.8339 8.94531ZM61.9432 10.9297C61.912 10.8724 61.8964 10.8281 61.8964 10.7969C61.8964 10.7552 61.9589 10.7135 62.0839 10.6719L62.9667 10.3984C63.0188 10.3828 63.0604 10.375 63.0917 10.375C63.1542 10.375 63.2063 10.4193 63.2479 10.5078C63.4719 10.9557 63.6542 11.4219 63.7948 11.9062C63.8104 11.9688 63.8182 12.0104 63.8182 12.0312C63.8182 12.0885 63.7583 12.138 63.6385 12.1797L62.7557 12.4453C62.6828 12.4714 62.6281 12.4844 62.5917 12.4844C62.5396 12.4844 62.4979 12.4349 62.4667 12.3359C62.3 11.7786 62.1255 11.3099 61.9432 10.9297ZM85.0135 8.19531C84.6125 11.1589 83.9458 13.4557 83.0135 15.0859C82.3104 16.3151 81.4016 16.9297 80.287 16.9297C79.4797 16.9297 78.7974 16.5234 78.2401 15.7109C77.7193 14.9401 77.4589 13.9766 77.4589 12.8203C77.4589 11.2526 78.0604 9.86458 79.2635 8.65625C80.6281 7.29167 82.3625 6.60938 84.4667 6.60938C86.4719 6.60938 88.0344 7.20312 89.1542 8.39062C90.0917 9.39062 90.5604 10.6458 90.5604 12.1562C90.5604 15.0521 88.9172 16.9948 85.6307 17.9844C85.537 18.0104 85.4589 18.0234 85.3964 18.0234C85.2401 18.0234 85.0891 17.9141 84.9432 17.6953C84.7141 17.3359 84.3417 17 83.826 16.6875C85.4719 16.2969 86.6698 15.7474 87.4198 15.0391C88.2427 14.263 88.6542 13.2188 88.6542 11.9062C88.6542 10.8385 88.2818 9.9375 87.537 9.20312C86.8599 8.53125 86.0396 8.19531 85.076 8.19531H85.0135ZM83.1542 8.28906C82.0135 8.51823 81.1021 9.0026 80.4198 9.74219C79.5865 10.6797 79.1698 11.6667 79.1698 12.7031C79.1698 13.4375 79.3026 14.0286 79.5682 14.4766C79.7766 14.8203 80.0057 14.9922 80.2557 14.9922C80.6932 14.9922 81.0943 14.6667 81.4589 14.0156C81.8495 13.3021 82.2063 12.3854 82.5292 11.2656C82.8208 10.25 83.0292 9.25781 83.1542 8.28906ZM97.1542 8.59375L97.1698 6.76562C97.1698 6.22917 97.1333 5.79948 97.0604 5.47656C97.8365 5.52344 98.4693 5.61719 98.9589 5.75781C99.1724 5.8151 99.2792 5.91667 99.2792 6.0625C99.2792 6.125 99.2479 6.21094 99.1854 6.32031C99.0656 6.54427 98.9901 6.7526 98.9589 6.94531C98.9276 7.2526 98.9016 7.69531 98.8807 8.27344C99.4484 8.15885 100.133 7.96354 100.935 7.6875C100.977 7.67188 101.014 7.66406 101.045 7.66406C101.139 7.66406 101.193 7.71875 101.209 7.82812C101.271 8.22917 101.303 8.64323 101.303 9.07031C101.303 9.20052 101.232 9.28646 101.092 9.32812C100.243 9.59896 99.4797 9.80208 98.8026 9.9375L98.7714 12.2578C100.193 11.6484 101.506 11.3542 102.709 11.375C103.782 11.3854 104.636 11.7188 105.271 12.375C105.834 12.9531 106.115 13.6849 106.115 14.5703C106.115 15.6641 105.766 16.4974 105.068 17.0703C104.459 17.5703 103.652 17.8203 102.646 17.8203C102.172 17.8203 101.735 17.7734 101.334 17.6797C101.099 17.6172 100.982 17.4557 100.982 17.1953C100.93 16.6641 100.769 16.2135 100.498 15.8438C101.071 16.0312 101.738 16.125 102.498 16.125C103.019 16.125 103.438 15.974 103.756 15.6719C104.068 15.375 104.224 14.9766 104.224 14.4766C104.224 13.9245 104.05 13.5078 103.701 13.2266C103.399 12.9818 102.988 12.8594 102.467 12.8594C101.435 12.8594 100.214 13.224 98.8026 13.9531C98.8182 14.6354 98.8391 15.276 98.8651 15.875C98.9537 17.1198 98.9979 17.8125 98.9979 17.9531C98.9979 18.1354 98.9901 18.25 98.9745 18.2969C98.9432 18.3906 98.8703 18.4505 98.7557 18.4766C98.3599 18.5859 97.9667 18.651 97.576 18.6719C97.4719 18.6823 97.3417 18.5755 97.1854 18.3516C96.7063 17.6901 95.9484 17.0078 94.912 16.3047C94.7141 16.4141 94.5448 16.5312 94.4042 16.6562C94.326 16.7292 94.2349 16.7656 94.1307 16.7656C94.0005 16.7656 93.8833 16.6797 93.7792 16.5078C93.6177 16.2474 93.3729 15.7526 93.0448 15.0234C93.5604 14.9036 94.05 14.7161 94.5135 14.4609C94.9979 14.1953 95.8677 13.7005 97.1229 12.9766V10.2422C96.0552 10.3255 95.1594 10.3672 94.4354 10.3672C94.2063 10.3672 94.0787 10.2552 94.0526 10.0312C94.0109 9.77604 93.951 9.3125 93.8729 8.64062C94.2219 8.69271 94.6385 8.71875 95.1229 8.71875C95.5813 8.71875 96.2583 8.67708 97.1542 8.59375ZM97.201 14.6562C96.524 15.1146 96.0031 15.4766 95.6385 15.7422C96.1906 16.0391 96.6906 16.2786 97.1385 16.4609C97.175 16.4714 97.2037 16.4766 97.2245 16.4766C97.2766 16.4766 97.3026 16.4453 97.3026 16.3828C97.3026 16.3672 97.3 16.3516 97.2948 16.3359C97.2844 16.1745 97.2688 15.888 97.2479 15.4766C97.2271 15.0599 97.2115 14.7865 97.201 14.6562ZM102.553 8.59375C102.735 8.21354 102.98 7.79688 103.287 7.34375C103.37 7.20833 103.441 7.14062 103.498 7.14062C103.514 7.14062 103.534 7.14323 103.56 7.14844C104.941 7.55469 106.071 8.20573 106.951 9.10156C107.014 9.16927 107.045 9.22396 107.045 9.26562C107.045 9.28646 107.024 9.33854 106.982 9.42188C106.894 9.55729 106.743 9.76042 106.529 10.0312C106.295 10.3333 106.157 10.5104 106.115 10.5625C106.089 10.599 106.032 10.6172 105.943 10.6172C105.865 10.6172 105.816 10.599 105.795 10.5625C105.045 9.72917 103.964 9.07292 102.553 8.59375ZM114.154 19.2344H112.904C112.821 19.2344 112.771 19.2214 112.756 19.1953C112.74 19.1797 112.732 19.1328 112.732 19.0547L112.764 15.7578V14.0625L112.732 11.5781C112.732 11.4948 112.743 11.4453 112.764 11.4297C112.784 11.4141 112.831 11.4062 112.904 11.4062L115.084 11.4375H116.506C116.506 10.6615 116.474 10.1224 116.412 9.82031C116.938 9.82031 117.477 9.84635 118.029 9.89844C118.201 9.91927 118.287 9.97917 118.287 10.0781C118.287 10.1198 118.253 10.2161 118.185 10.3672C118.133 10.5078 118.107 10.8646 118.107 11.4375H119.678L121.865 11.4062C121.948 11.4062 122.001 11.4167 122.021 11.4375C122.037 11.4583 122.045 11.5052 122.045 11.5781L122.014 13.7891V15.7109L122.045 18.9766C122.045 19.0651 122.034 19.1198 122.014 19.1406C121.993 19.1562 121.943 19.1641 121.865 19.1641H120.584C120.501 19.1641 120.451 19.1536 120.435 19.1328C120.42 19.112 120.412 19.0599 120.412 18.9766V18.3828H114.334V19.0547C114.334 19.138 114.323 19.1901 114.303 19.2109C114.282 19.2266 114.232 19.2344 114.154 19.2344ZM118.107 17.0859H120.412V15.4688H118.107V17.0859ZM114.334 17.0859H116.506V15.4688H114.334V17.0859ZM120.412 12.75H118.107V14.2188H120.412V12.75ZM114.334 12.75V14.2188H116.506V12.75H114.334ZM111.56 14.5703C111.321 16.0755 110.831 17.4349 110.092 18.6484C109.977 18.8411 109.896 18.9375 109.849 18.9375C109.792 18.9375 109.691 18.8568 109.545 18.6953C109.159 18.2578 108.803 17.9505 108.474 17.7734C109.219 16.7526 109.711 15.4922 109.951 13.9922C110.175 12.6328 110.287 10.8854 110.287 8.75L110.248 5.35938C110.248 5.27604 110.258 5.22656 110.279 5.21094C110.305 5.19531 110.357 5.1875 110.435 5.1875L112.631 5.21875H120.092L122.279 5.1875C122.363 5.1875 122.415 5.19792 122.435 5.21875C122.451 5.23958 122.459 5.28646 122.459 5.35938L122.428 6.60938V8.1875L122.459 9.40625C122.459 9.48958 122.448 9.53906 122.428 9.55469C122.407 9.57031 122.357 9.57812 122.279 9.57812L120.092 9.54688H111.943V9.91406C111.943 11.5026 111.816 13.0547 111.56 14.5703ZM120.795 8.14062V6.65625H111.943V8.14062H120.795ZM134.474 8.70312C134.422 7.39583 134.389 6.6875 134.373 6.57812C134.31 6.02083 134.222 5.58333 134.107 5.26562C135.102 5.29688 135.79 5.36979 136.17 5.48438C136.342 5.53125 136.428 5.61719 136.428 5.74219C136.428 5.82552 136.389 5.93229 136.31 6.0625C136.258 6.16667 136.232 6.39062 136.232 6.73438V8.51562C137.003 8.40625 137.685 8.28906 138.279 8.16406C138.336 8.14844 138.383 8.14062 138.42 8.14062C138.508 8.14062 138.558 8.19531 138.568 8.30469C138.615 8.59115 138.659 8.99219 138.701 9.50781C138.701 9.52865 138.701 9.54427 138.701 9.55469C138.701 9.69531 138.631 9.77344 138.49 9.78906C137.813 9.91927 137.076 10.026 136.279 10.1094L136.295 12.5781C136.31 14.0625 136.076 15.2995 135.592 16.2891C135.097 17.3464 134.334 18.1745 133.303 18.7734C133.152 18.8672 133.019 18.9141 132.904 18.9141C132.774 18.9141 132.667 18.8672 132.584 18.7734C132.271 18.4922 131.855 18.2292 131.334 17.9844C132.126 17.5625 132.732 17.1302 133.154 16.6875C133.519 16.3125 133.813 15.8594 134.037 15.3281C134.386 14.526 134.553 13.3359 134.537 11.7578L134.521 10.3047C133.667 10.3672 133.027 10.3984 132.599 10.3984C132.422 10.4089 132.23 10.4141 132.021 10.4141C131.823 10.4141 131.568 10.4089 131.256 10.3984C131.027 10.3984 130.904 10.3151 130.889 10.1484C130.873 10.0651 130.813 9.57812 130.709 8.6875C131.204 8.74479 131.865 8.77344 132.693 8.77344C133.37 8.77344 133.964 8.75 134.474 8.70312ZM127.014 5.4375C127.727 5.60938 128.287 5.79688 128.693 6C128.928 6.11979 129.045 6.23698 129.045 6.35156C129.045 6.45052 129.014 6.55729 128.951 6.67188C128.863 6.89583 128.761 7.29167 128.646 7.85938C128.24 10.1615 128.037 11.7604 128.037 12.6562C128.037 13.849 128.092 14.6927 128.201 15.1875C128.868 13.7708 129.224 13.0078 129.271 12.8984C129.407 13.263 129.581 13.6198 129.795 13.9688C129.894 14.0781 129.943 14.1797 129.943 14.2734C129.943 14.3672 129.878 14.5417 129.748 14.7969C129.451 15.4635 129.211 16.1146 129.029 16.75C128.998 16.8802 128.982 17.0208 128.982 17.1719V17.5547C128.982 17.6484 128.912 17.7214 128.771 17.7734C128.365 17.9505 127.998 18.0625 127.67 18.1094C127.633 18.1146 127.602 18.1172 127.576 18.1172C127.467 18.1172 127.376 18.0443 127.303 17.8984C127.027 17.3516 126.795 16.5443 126.607 15.4766C126.441 14.5599 126.357 13.7161 126.357 12.9453C126.357 11.7682 126.516 10.0599 126.834 7.82031C126.954 6.92448 127.014 6.13021 127.014 5.4375Z" fill="black"/>
<circle cx="6.41008" cy="12.58" r="5.58" fill="#45CCC4"/>
</svg>
